<svg xmlns="http://www.w3.org/2000/svg" xmlns:xlink="http://www.w3.org/1999/xlink" version="1.1" xml:space="preserve" viewBox="65.96 77.95 447.06 309.38">
<desc>Created with Fabric.js 3.6.6</desc>
<defs>
</defs>
<g transform="matrix(16.75 0 0 16.75 289.43 232.57)" id="Fill-21">
<path style="stroke: none; stroke-width: 1; stroke-dasharray: none; stroke-linecap: butt; stroke-dashoffset: 0; stroke-linejoin: miter; stroke-miterlimit: 4; fill: rgb(30,67,128); fill-rule: evenodd; opacity: 1;" transform=" translate(-32.13, -9.37)" d="M 31.240448 0.138790576 C 24.069888 0.138790576 18.788608 4.70528272 18.788608 9.58501571 C 18.788608 12.1063351 20.206848 14.2300105 21.991168 15.7020628 L 22.126848 15.6097068 C 20.711168 14.437555 19.433472 12.5991571 19.433472 10.0819424 C 19.807488 4.74325131 26.379008 1.73372775 32.218368 1.73372775 C 36.352768 1.73372775 43.776512 2.69089529 43.776512 9.61426178 C 43.776512 13.2266649 39.923712 17.9245079 31.836416 17.9245079 C 27.694592 17.9245079 24.476672 15.7020628 24.476672 12.5085969 C 24.476672 9.74253403 26.637312 7.77355497 29.860608 7.77355497 C 30.748672 7.77355497 31.580928 7.98135602 32.215552 8.15426702 C 30.871552 7.91183246 28.784896 8.25765445 27.705088 9.10758639 L 27.705088 13.7833665 L 31.665408 13.7833665 L 31.665408 8.46802094 C 32.412672 8.60296335 32.991488 8.88336649 33.390592 9.13272775 L 33.390592 13.7833665 L 34.422272 13.7833665 C 33.611008 14.6948691 32.100608 15.2497749 30.792192 15.0455654 L 30.792192 15.2413089 C 34.555392 15.5378743 36.147712 13.7500157 36.147712 11.7381937 C 36.147712 9.37131414 33.931008 7.98135602 31.665408 7.69684817 L 31.665408 4.20142932 L 27.705088 4.20142932 L 27.705088 7.73840838 C 25.142272 8.25560209 22.633472 9.7815288 22.633472 12.3087487 C 22.633472 16.1989895 28.060416 18.6092251 32.781568 18.6092251 C 39.956992 18.6092251 45.478656 15.1330471 45.478656 10.2563927 C 45.478656 4.35253403 37.507072 0.138790576 31.240448 0.138790576 M 36.698368 11.8744188 C 36.698368 10.1553141 35.525376 8.77818325 33.390592 8.1132199 L 33.390592 4.20142932 L 37.346048 4.20142932 L 37.346048 13.7833665 L 36.109312 13.7833665 C 36.544256 13.1694555 36.698368 12.4729372 36.698368 11.8744188" stroke-linecap="round"/>
</g>
</svg>